<?xml version="1.0" encoding="UTF-8" standalone="no"?>
<!DOCTYPE svg PUBLIC "-//W3C//DTD SVG 1.1//EN" "http://www.w3.org/Graphics/SVG/1.1/DTD/svg11.dtd">
<svg width="800" height="200" xmlns="http://www.w3.org/2000/svg" xmlns:xlink="http://www.w3.org/1999/xlink">
<circle r="10" cx="-10" cy="20" stroke="black" stroke-width="1" fill="transparent">
<animate attributeName="cx" values="810;-10" dur="300s" repeatCount="indefinite" />
</circle>
<circle r="10" cx="-10" cy="20" stroke="black" stroke-width="1" fill="transparent">
<animate attributeName="cx" values="810;-10" dur="300s" repeatCount="indefinite"  begin="5s" />
</circle>
<line x1="0" y1="199" x2="800" y2="199" stroke="black" stroke-width="2" />
<line x1="0" y1="180" x2="800" y2="180" stroke="black" stroke-width="2" />
<line x1="0" y1="190" x2="800" y2="190" stroke="black" stroke-width="1" stroke-dasharray="0.75 0.25" stroke-dashoffset="0" pathLength="10">
    <animate attributeName="stroke-dashoffset" values="0;1" dur="5s" repeatCount="indefinite" />
</line>

<line x1="400" y1="140" x2="395" y2="170" stroke="black" stroke-width="4" />
<circle r="2" cx="395" cy="170" />
<circle r="10" cx="400" cy="140"/>
<g transform="translate(395, 170)">
<g>
    <line x1="0" y1="0" x2="10" y2="15" stroke="black" stroke-width="4" />
    <line x1="10" y1="15" x2="5" y2="25" stroke="black" stroke-width="4" />
    <circle r="2" cx="10" cy="15" />
    <animateTransform attributeName="transform" attributeType="XML" type="rotate" values="-20;40;-20" begin="0s" dur="3s" repeatCount="indefinite" />
</g>
<g>
    <line x1="0" y1="0" x2="10" y2="15" stroke="black" stroke-width="4" />
    <line x1="10" y1="15" x2="5" y2="25" stroke="black" stroke-width="4" />
    <circle r="2" cx="10" cy="15" />
    <animateTransform attributeName="transform" attributeType="XML" type="rotate" values="40;-20;40" begin="0s" dur="3s" repeatCount="indefinite" />
</g>
</g>

<g transform="translate(397.5, 155)">
<g>
    <line x1="0" y1="0" x2="0" y2="10" stroke="black" stroke-width="4" />
    <line x1="0" y1="10" x2="10" y2="10" stroke="black" stroke-width="4" />
    <circle r="2" cx="0" cy="10" />
    <animateTransform attributeName="transform" attributeType="XML" type="rotate" values="-30;60;-30" begin="0s" dur="3s" repeatCount="indefinite" />
</g>
<g>
    <line x1="0" y1="0" x2="0" y2="10" stroke="black" stroke-width="4" />
    <line x1="0" y1="10" x2="10" y2="10" stroke="black" stroke-width="4" />
    <circle r="2" cx="0" cy="10" />
    <animateTransform attributeName="transform" attributeType="XML" type="rotate" values="60;-30;60" begin="0s" dur="3s" repeatCount="indefinite" />
</g>
</g>
</svg>